<svg width="80" height="207" viewBox="0 0 80 207" fill="none" xmlns="http://www.w3.org/2000/svg">
<mask id="path-1-outside-1_2_4772" maskUnits="userSpaceOnUse" x="-9.00455e-06" y="-3.4532e-06" width="80" height="207" fill="black">
<rect fill="white" x="-9.00455e-06" y="-3.4532e-06" width="80" height="207"/>
<path d="M77.8764 206L2.03001 206L2.03001 186.234C2.03001 182.986 2.27971 179.926 2.77911 177.053C3.27851 174.118 4.2461 171.526 5.68187 169.278C7.05522 167.03 9.05282 165.281 11.6747 164.032C14.2341 162.72 17.6363 162.065 21.8811 162.065C24.94 162.065 27.5306 162.533 29.6531 163.47C31.7131 164.344 33.3673 165.624 34.6159 167.311C35.8643 168.934 36.7071 170.902 37.1441 173.212C37.5186 170.277 38.4862 167.81 40.0468 165.812C41.545 163.813 43.5738 162.314 46.1333 161.315C48.6927 160.254 51.7827 159.723 55.4034 159.723C59.3361 159.723 62.7383 160.254 65.6098 161.315C68.419 162.314 70.7287 163.782 72.539 165.718C74.3493 167.654 75.6915 170.059 76.5654 172.931C77.4394 175.742 77.8764 178.989 77.8764 182.674L77.8764 206ZM66.1717 189.231L66.1717 185.672C66.1717 181.987 65.2353 179.458 63.3626 178.084C61.4898 176.647 58.7431 175.929 55.1225 175.929C52.2509 175.929 49.9724 176.241 48.2869 176.866C46.6014 177.49 45.3842 178.521 44.6351 179.957C43.8235 181.394 43.4178 183.33 43.4178 185.765L43.4178 189.231L66.1717 189.231ZM32.3685 189.231L32.3685 185.953C32.3685 183.392 31.994 181.456 31.2449 180.145C30.4334 178.833 29.2785 177.959 27.7803 177.522C26.2821 177.022 24.4718 176.772 22.3493 176.772C20.3517 176.772 18.6975 177.147 17.3866 177.896C16.0132 178.583 14.9832 179.645 14.2965 181.081C13.6098 182.455 13.2665 184.204 13.2665 186.327L13.2665 189.231L32.3685 189.231Z"/>
<path d="M79 124.51C79 130.193 78.0012 134.689 76.0036 137.999C74.006 141.309 71.1345 143.683 67.389 145.119C63.6435 146.555 59.1801 147.274 53.9988 147.274L25.8139 147.274C20.5702 147.274 16.1068 146.555 12.4238 145.119C8.74069 143.683 5.93157 141.309 3.9964 137.999C1.9988 134.689 0.999997 130.193 0.999996 124.51C0.999996 118.764 1.9988 114.236 3.9964 110.926C5.93157 107.554 8.74069 105.149 12.4238 103.713C16.1068 102.277 20.5702 101.558 25.8139 101.558L53.9988 101.558C59.1801 101.558 63.6435 102.277 67.389 103.713C71.1345 105.149 74.006 107.554 76.0036 110.926C78.0012 114.236 79 118.764 79 124.51ZM67.108 124.51C67.108 122.761 66.6711 121.481 65.7971 120.669C64.9232 119.857 63.7995 119.326 62.4262 119.076C61.0528 118.826 59.6483 118.702 58.2125 118.702L21.6939 118.702C20.1957 118.702 18.7911 118.826 17.4802 119.076C16.1068 119.326 14.9832 119.857 14.1092 120.669C13.2353 121.481 12.7983 122.761 12.7983 124.51C12.7983 126.133 13.2353 127.351 14.1092 128.163C14.9832 128.975 16.1068 129.506 17.4802 129.756C18.7911 130.006 20.1957 130.13 21.6939 130.13L58.2125 130.13C59.6483 130.13 61.0528 130.037 62.4262 129.849C63.7995 129.6 64.9232 129.1 65.7971 128.35C66.6711 127.539 67.108 126.258 67.108 124.51Z"/>
<path d="M77.8764 80.5626L14.4838 80.5626L14.4838 91.9914L2.03 91.9914L2.03 52.3653L14.4838 52.3653L14.4838 63.7004L77.8764 63.7004L77.8764 80.5626Z"/>
<path d="M79 20.8599C79 25.6063 78.1573 29.572 76.4718 32.7571C74.7863 35.9422 72.1957 38.3466 68.6999 39.9704C65.1417 41.5941 60.5534 42.4997 54.9352 42.6871L52.7815 28.3542C56.0276 28.2918 58.6495 28.0107 60.6471 27.5111C62.6446 26.949 64.0804 26.1996 64.9544 25.2628C65.8283 24.2636 66.2653 23.0769 66.2653 21.703C66.2653 19.9543 65.6723 18.8302 64.4862 18.3306C63.3001 17.7685 62.0516 17.4875 60.7407 17.4875C57.6194 17.4875 54.9976 18.2369 52.8751 19.7358C50.6903 21.2346 48.5054 23.2643 46.3205 25.8249L40.6086 32.3824C38.1741 35.2552 35.4274 37.6909 32.3685 39.6893C29.2473 41.6254 25.4082 42.5934 20.8511 42.5934C14.4214 42.5934 9.521 40.6886 6.15005 36.879C2.71668 33.0694 0.999992 27.8858 0.999992 21.3283C0.999992 17.2689 1.68667 14.0213 3.06002 11.5857C4.43337 9.08757 6.24369 7.21403 8.49099 5.96498C10.6759 4.65347 13.0168 3.77913 15.5138 3.34196C17.9484 2.84235 20.2893 2.56131 22.5366 2.49885L24.3157 16.9254C22.0684 16.9879 20.1332 17.144 18.5102 17.3938C16.8247 17.5811 15.545 18.0183 14.6711 18.7053C13.7347 19.3923 13.2665 20.4539 13.2665 21.8904C13.2665 23.4517 13.922 24.6071 15.2329 25.3565C16.5438 26.0435 17.8547 26.3869 19.1657 26.3869C21.9748 26.3869 24.2845 25.7312 26.0948 24.4197C27.8427 23.0457 29.6843 21.2659 31.6194 19.08L37.144 12.8035C39.9532 9.49354 43.1369 6.71441 46.6951 4.46612C50.2533 2.15538 54.6543 0.999998 59.898 0.999997C63.4562 0.999997 66.7023 1.81189 69.6363 3.43565C72.5078 5.05941 74.7863 7.37016 76.4718 10.3679C78.1573 13.3031 79 16.8005 79 20.8599Z"/>
</mask>
<path d="M77.8764 206L2.03001 206L2.03001 186.234C2.03001 182.986 2.27971 179.926 2.77911 177.053C3.27851 174.118 4.2461 171.526 5.68187 169.278C7.05522 167.03 9.05282 165.281 11.6747 164.032C14.2341 162.72 17.6363 162.065 21.8811 162.065C24.94 162.065 27.5306 162.533 29.6531 163.47C31.7131 164.344 33.3673 165.624 34.6159 167.311C35.8643 168.934 36.7071 170.902 37.1441 173.212C37.5186 170.277 38.4862 167.81 40.0468 165.812C41.545 163.813 43.5738 162.314 46.1333 161.315C48.6927 160.254 51.7827 159.723 55.4034 159.723C59.3361 159.723 62.7383 160.254 65.6098 161.315C68.419 162.314 70.7287 163.782 72.539 165.718C74.3493 167.654 75.6915 170.059 76.5654 172.931C77.4394 175.742 77.8764 178.989 77.8764 182.674L77.8764 206ZM66.1717 189.231L66.1717 185.672C66.1717 181.987 65.2353 179.458 63.3626 178.084C61.4898 176.647 58.7431 175.929 55.1225 175.929C52.2509 175.929 49.9724 176.241 48.2869 176.866C46.6014 177.49 45.3842 178.521 44.6351 179.957C43.8235 181.394 43.4178 183.33 43.4178 185.765L43.4178 189.231L66.1717 189.231ZM32.3685 189.231L32.3685 185.953C32.3685 183.392 31.994 181.456 31.2449 180.145C30.4334 178.833 29.2785 177.959 27.7803 177.522C26.2821 177.022 24.4718 176.772 22.3493 176.772C20.3517 176.772 18.6975 177.147 17.3866 177.896C16.0132 178.583 14.9832 179.645 14.2965 181.081C13.6098 182.455 13.2665 184.204 13.2665 186.327L13.2665 189.231L32.3685 189.231Z" stroke="#B5C4CB" stroke-opacity="0.2" stroke-width="2" mask="url(#path-1-outside-1_2_4772)"/>
<path d="M79 124.51C79 130.193 78.0012 134.689 76.0036 137.999C74.006 141.309 71.1345 143.683 67.389 145.119C63.6435 146.555 59.1801 147.274 53.9988 147.274L25.8139 147.274C20.5702 147.274 16.1068 146.555 12.4238 145.119C8.74069 143.683 5.93157 141.309 3.9964 137.999C1.9988 134.689 0.999997 130.193 0.999996 124.51C0.999996 118.764 1.9988 114.236 3.9964 110.926C5.93157 107.554 8.74069 105.149 12.4238 103.713C16.1068 102.277 20.5702 101.558 25.8139 101.558L53.9988 101.558C59.1801 101.558 63.6435 102.277 67.389 103.713C71.1345 105.149 74.006 107.554 76.0036 110.926C78.0012 114.236 79 118.764 79 124.51ZM67.108 124.51C67.108 122.761 66.6711 121.481 65.7971 120.669C64.9232 119.857 63.7995 119.326 62.4262 119.076C61.0528 118.826 59.6483 118.702 58.2125 118.702L21.6939 118.702C20.1957 118.702 18.7911 118.826 17.4802 119.076C16.1068 119.326 14.9832 119.857 14.1092 120.669C13.2353 121.481 12.7983 122.761 12.7983 124.51C12.7983 126.133 13.2353 127.351 14.1092 128.163C14.9832 128.975 16.1068 129.506 17.4802 129.756C18.7911 130.006 20.1957 130.13 21.6939 130.13L58.2125 130.13C59.6483 130.13 61.0528 130.037 62.4262 129.849C63.7995 129.6 64.9232 129.1 65.7971 128.35C66.6711 127.539 67.108 126.258 67.108 124.51Z" stroke="#B5C4CB" stroke-opacity="0.2" stroke-width="2" mask="url(#path-1-outside-1_2_4772)"/>
<path d="M77.8764 80.5626L14.4838 80.5626L14.4838 91.9914L2.03 91.9914L2.03 52.3653L14.4838 52.3653L14.4838 63.7004L77.8764 63.7004L77.8764 80.5626Z" stroke="#B5C4CB" stroke-opacity="0.2" stroke-width="2" mask="url(#path-1-outside-1_2_4772)"/>
<path d="M79 20.8599C79 25.6063 78.1573 29.572 76.4718 32.7571C74.7863 35.9422 72.1957 38.3466 68.6999 39.9704C65.1417 41.5941 60.5534 42.4997 54.9352 42.6871L52.7815 28.3542C56.0276 28.2918 58.6495 28.0107 60.6471 27.5111C62.6446 26.949 64.0804 26.1996 64.9544 25.2628C65.8283 24.2636 66.2653 23.0769 66.2653 21.703C66.2653 19.9543 65.6723 18.8302 64.4862 18.3306C63.3001 17.7685 62.0516 17.4875 60.7407 17.4875C57.6194 17.4875 54.9976 18.2369 52.8751 19.7358C50.6903 21.2346 48.5054 23.2643 46.3205 25.8249L40.6086 32.3824C38.1741 35.2552 35.4274 37.6909 32.3685 39.6893C29.2473 41.6254 25.4082 42.5934 20.8511 42.5934C14.4214 42.5934 9.521 40.6886 6.15005 36.879C2.71668 33.0694 0.999992 27.8858 0.999992 21.3283C0.999992 17.2689 1.68667 14.0213 3.06002 11.5857C4.43337 9.08757 6.24369 7.21403 8.49099 5.96498C10.6759 4.65347 13.0168 3.77913 15.5138 3.34196C17.9484 2.84235 20.2893 2.56131 22.5366 2.49885L24.3157 16.9254C22.0684 16.9879 20.1332 17.144 18.5102 17.3938C16.8247 17.5811 15.545 18.0183 14.6711 18.7053C13.7347 19.3923 13.2665 20.4539 13.2665 21.8904C13.2665 23.4517 13.922 24.6071 15.2329 25.3565C16.5438 26.0435 17.8547 26.3869 19.1657 26.3869C21.9748 26.3869 24.2845 25.7312 26.0948 24.4197C27.8427 23.0457 29.6843 21.2659 31.6194 19.08L37.144 12.8035C39.9532 9.49354 43.1369 6.71441 46.6951 4.46612C50.2533 2.15538 54.6543 0.999998 59.898 0.999997C63.4562 0.999997 66.7023 1.81189 69.6363 3.43565C72.5078 5.05941 74.7863 7.37016 76.4718 10.3679C78.1573 13.3031 79 16.8005 79 20.8599Z" stroke="#B5C4CB" stroke-opacity="0.2" stroke-width="2" mask="url(#path-1-outside-1_2_4772)"/>
</svg>
