<svg width="80" height="221" viewBox="0 0 80 221" fill="none" xmlns="http://www.w3.org/2000/svg">
<path d="M78.3764 106.388L77.8764 106.388L2.03 106.388L1.53 106.388L1.53 105.888L1.53 84.9815C1.53 79.822 2.09538 75.3338 3.23652 71.5254C4.38861 67.6805 6.47776 64.6774 9.50941 62.5446C12.4995 60.334 16.7076 59.2626 22.0684 59.2626C25.2153 59.2626 28.0279 59.5145 30.5027 60.0228C33.0028 60.5363 35.1952 61.5019 37.07 62.9255M78.3764 106.388L36.7695 63.3251M78.3764 106.388L78.3764 105.888L78.3764 89.1065L78.3764 88.6065L77.8764 88.6065L44.386 88.6065M78.3764 106.388L44.386 89.1065M37.07 62.9255C37.0707 62.926 37.0713 62.9265 37.0719 62.927L36.7695 63.3251M37.07 62.9255C37.0699 62.9254 37.0698 62.9254 37.0697 62.9253L36.7695 63.3251M37.07 62.9255C38.8056 64.2289 40.2575 66.0781 41.4371 68.4486M36.7695 63.3251C38.5174 64.6376 39.9844 66.5439 41.1705 69.0439M41.4371 68.4486L41.0341 68.5628L41.1705 69.0439M41.4371 68.4486L77.74 58.1565L78.3764 57.9761L78.3764 58.6376L78.3764 75.9814L78.3764 76.3735L77.9956 76.467L44.386 84.7174M41.4371 68.4486C41.4996 68.5741 41.5613 68.7011 41.6222 68.8296L41.1705 69.0439M41.1705 69.0439L44.386 84.7174M77.8764 58.6376L77.8764 59.1573L78.0127 59.1186L77.8764 58.6376ZM77.8764 58.6376L77.3764 58.6376L77.3764 58.7793L77.8764 58.6376ZM44.386 84.7174L44.386 84.3253L43.886 84.3253M44.386 84.7174L77.8764 75.9814L43.886 84.3253M44.386 84.7174L44.0052 84.8108L43.886 84.3253M44.386 84.7174L44.386 88.6065M43.886 84.3253L43.886 88.6065L44.386 88.6065M44.386 88.6065L44.386 89.1065M44.386 89.1065L77.3764 89.1065L77.8764 89.1065L44.386 89.1065ZM77.8764 220.5L78.3764 220.5L78.3764 220L78.3764 200.594C78.3764 194 77.5315 188.823 75.8021 185.103C74.0674 181.308 71.3562 178.621 67.6768 177.07L67.674 177.069C63.9718 175.535 59.2499 174.781 53.5306 174.781L26.0012 174.781C20.3454 174.781 15.7147 175.535 12.1344 177.071C8.45481 178.622 5.77396 181.311 4.10204 185.108C2.37465 188.889 1.53001 194.126 1.53001 200.781L1.53001 220L1.53001 220.5L2.03001 220.5L77.8764 220.5ZM61.6686 193.489L61.6785 193.491L61.6884 193.493C63.0689 193.723 64.0629 194.344 64.7255 195.339C65.3895 196.337 65.7653 198.055 65.7653 200.594L65.7653 202.719L14.2347 202.719L14.2347 200.687C14.2347 198.206 14.5484 196.501 15.1083 195.492C15.6565 194.504 16.529 193.865 17.7784 193.581L17.7888 193.579L17.7992 193.576C19.1123 193.217 20.8731 193.031 23.0984 193.031L56.1525 193.031C58.3798 193.031 60.2156 193.186 61.6686 193.489ZM77.7834 165.627L78.3764 165.739L78.3764 165.135L78.3764 149.292L78.3764 148.867L77.9572 148.798L62.3643 146.242L62.3643 135.937L77.9544 133.473L78.3764 133.406L78.3764 132.979L78.3764 117.51L78.3764 116.908L77.7846 117.019L1.93827 131.175L1.53001 131.251L1.53001 131.666L1.53001 150.792L1.53001 151.206L1.9371 151.283L77.7834 165.627ZM29.2084 76.6414L29.2084 76.6415L29.2196 76.6451C30.674 77.1111 31.7948 77.9472 32.603 79.1576C33.3433 80.3591 33.7413 82.0952 33.7413 84.419L33.7413 88.6065L13.7665 88.6065L13.7665 83.669C13.7665 80.5648 14.6456 78.581 16.2562 77.5245C17.9539 76.4109 20.3724 75.8252 23.5666 75.8252C25.7744 75.8252 27.6514 76.1018 29.2084 76.6414ZM17.5697 19.0233L17.5738 19.0225C18.8504 18.7791 20.2233 18.6564 21.6939 18.6564L58.2125 18.6564C59.6191 18.6564 60.9936 18.7788 62.3366 19.0233C63.6323 19.2591 64.6638 19.7542 65.4567 20.4913C66.1893 21.1724 66.608 22.2924 66.608 23.9689C66.608 25.6399 66.192 26.7581 65.4638 27.4398C64.6734 28.1154 63.6427 28.5814 62.3475 28.8188C61.0009 29.0021 59.6226 29.0939 58.2125 29.0939L21.6939 29.0939C20.2233 29.0939 18.8504 28.9712 17.5739 28.7278L17.5697 28.727C16.2741 28.4912 15.2425 27.9961 14.4497 27.259C13.7102 26.5715 13.2983 25.5071 13.2983 23.9689C13.2983 22.2924 13.7171 21.1724 14.4497 20.4913C15.2425 19.7542 16.2741 19.2591 17.5697 19.0233ZM25.9596 141.135L51.3451 137.677L51.3451 144.594L25.9596 141.135ZM76.4318 37.7272C78.4935 34.3084 79.5 29.7073 79.5 23.9689C79.5 18.1701 78.4942 13.5378 76.4327 10.1185C74.3764 6.64506 71.4155 4.16606 67.5681 2.68945C63.7515 1.22462 59.2243 0.499997 53.9988 0.499998L25.8139 0.499999C20.5272 0.499999 15.9985 1.22429 12.242 2.69047C8.45625 4.16804 5.55832 6.64821 3.56548 10.1214C1.50521 13.5405 0.499991 18.1717 0.499991 23.9689C0.499992 29.7058 1.50597 34.3058 3.56651 37.7243C5.56034 41.1357 8.45853 43.5831 12.242 45.0598C15.9985 46.526 20.5272 47.2503 25.8139 47.2503L53.9988 47.2503C59.2243 47.2503 63.7515 46.5257 67.5681 45.0608C71.4134 43.585 74.3744 41.1388 76.4318 37.7272Z" stroke="#B5C4CB" stroke-opacity="0.2"/>
</svg>
