<svg width="111" height="18" viewBox="0 0 111 18" fill="none" xmlns="http://www.w3.org/2000/svg">
<path d="M0 17.7617V0.216606H4.4391C5.97858 0.216606 7.1743 0.411552 8.02625 0.801444C8.89314 1.1769 9.50594 1.77617 9.86466 2.59928C10.2234 3.40794 10.4027 4.44765 10.4027 5.71841V12.1083C10.4027 13.4079 10.2234 14.4765 9.86466 15.3141C9.50594 16.1516 8.90061 16.7726 8.04866 17.1769C7.21166 17.5668 6.03837 17.7617 4.52877 17.7617H0ZM3.69925 15.2708H4.48394C5.17147 15.2708 5.65723 15.1697 5.94121 14.9675C6.24014 14.7509 6.42697 14.4404 6.50171 14.0361C6.57644 13.6173 6.6138 13.1047 6.6138 12.4982V5.26354C6.6138 4.65704 6.56149 4.17329 6.45687 3.81227C6.36719 3.43682 6.17288 3.16246 5.87396 2.98917C5.58997 2.81589 5.11916 2.72924 4.46152 2.72924H3.69925V15.2708Z" fill="black"/>
<path d="M14 17.7617L17.5199 0.216606H21.6227L25.1202 17.7617H21.69L21.0398 13.9061H18.1701L17.4751 17.7617H14ZM18.5064 11.7184H20.6811L19.5825 4.63538L18.5064 11.7184Z" fill="black"/>
<path d="M29.0711 17.7617V0.216606H33.7793C35.0049 0.216606 36.0511 0.353791 36.918 0.62816C37.7999 0.888087 38.4725 1.3574 38.9358 2.0361C39.4141 2.7148 39.6532 3.65343 39.6532 4.85199C39.6532 5.57401 39.586 6.21661 39.4515 6.77978C39.3319 7.32852 39.1077 7.81227 38.7789 8.23105C38.465 8.63538 38.0166 8.96029 37.4337 9.20578L39.9447 17.7617H36.1558L34.0707 9.81227H32.7704V17.7617H29.0711ZM32.7704 7.68953H33.8465C34.4444 7.68953 34.9152 7.59567 35.259 7.40794C35.6027 7.22022 35.8419 6.93863 35.9764 6.56318C36.1259 6.17329 36.2006 5.69675 36.2006 5.13357C36.2006 4.32491 36.0437 3.71119 35.7298 3.29242C35.4309 2.85921 34.8629 2.6426 34.0259 2.6426H32.7704V7.68953Z" fill="black"/>
<path d="M49.3194 18C47.9892 18 46.9355 17.769 46.1583 17.3069C45.381 16.8448 44.8206 16.1877 44.4768 15.3357C44.148 14.4693 43.9836 13.4368 43.9836 12.2383V5.69675C43.9836 4.49819 44.148 3.47292 44.4768 2.62094C44.8206 1.76895 45.381 1.11913 46.1583 0.67148C46.9355 0.223827 47.9892 0 49.3194 0C50.6646 0 51.7258 0.231047 52.503 0.693141C53.2952 1.14079 53.8557 1.79061 54.1845 2.6426C54.5283 3.48014 54.7002 4.49819 54.7002 5.69675V12.2383C54.7002 13.4368 54.5283 14.4693 54.1845 15.3357C53.8557 16.1877 53.2952 16.8448 52.503 17.3069C51.7258 17.769 50.6646 18 49.3194 18ZM49.3194 15.4224C49.7977 15.4224 50.149 15.3213 50.3732 15.1191C50.5974 14.9025 50.7468 14.6209 50.8216 14.2744C50.8963 13.9134 50.9337 13.5307 50.9337 13.1264V4.83033C50.9337 4.42599 50.8963 4.05054 50.8216 3.70397C50.7468 3.3574 50.5974 3.08303 50.3732 2.88087C50.149 2.66426 49.7977 2.55596 49.3194 2.55596C48.871 2.55596 48.5347 2.66426 48.3106 2.88087C48.0864 3.08303 47.9369 3.3574 47.8622 3.70397C47.7874 4.05054 47.7501 4.42599 47.7501 4.83033V13.1264C47.7501 13.5307 47.78 13.9134 47.8397 14.2744C47.9145 14.6209 48.0639 14.9025 48.2881 15.1191C48.5123 15.3213 48.8561 15.4224 49.3194 15.4224Z" fill="black"/>
<path d="M59.4121 17.7617V0.216606H64.0082C64.8003 0.216606 65.5327 0.281588 66.2053 0.411552C66.8779 0.541516 67.4683 0.772563 67.9765 1.10469C68.4996 1.43682 68.8957 1.89892 69.1647 2.49097C69.4487 3.06859 69.5907 3.82671 69.5907 4.76534C69.5907 5.47292 69.486 6.07942 69.2768 6.58484C69.0676 7.07581 68.7686 7.4657 68.38 7.75451C67.9914 8.04332 67.5131 8.23827 66.9452 8.33935C67.6476 8.44043 68.238 8.67148 68.7163 9.03249C69.1946 9.3935 69.5533 9.87004 69.7925 10.4621C70.0316 11.0542 70.1512 11.769 70.1512 12.6065C70.1512 13.4874 70.0316 14.2527 69.7925 14.9025C69.5683 15.5523 69.232 16.0866 68.7836 16.5054C68.3352 16.9242 67.7822 17.2419 67.1245 17.4585C66.4669 17.6606 65.7046 17.7617 64.8377 17.7617H59.4121ZM63.1114 15.2491H64.1427C65.0694 15.2491 65.7046 15.0253 66.0484 14.5776C66.4071 14.13 66.5864 13.4585 66.5864 12.5632C66.5864 11.87 66.5042 11.3213 66.3398 10.917C66.1754 10.4982 65.9064 10.1949 65.5327 10.0072C65.174 9.80505 64.6882 9.70397 64.0754 9.70397H63.1114V15.2491ZM63.1114 7.29964H64.0306C64.6733 7.29964 65.159 7.213 65.4879 7.03971C65.8167 6.85199 66.0409 6.57762 66.1605 6.21661C66.295 5.84116 66.3622 5.38628 66.3622 4.85199C66.3622 4.31769 66.2651 3.8917 66.0708 3.57401C65.8914 3.24188 65.6074 3.00361 65.2188 2.85921C64.8452 2.7148 64.3669 2.6426 63.784 2.6426H63.1114V7.29964Z" fill="black"/>
<path d="M79.5948 18C78.2645 18 77.2108 17.769 76.4336 17.3069C75.6564 16.8448 75.0959 16.1877 74.7521 15.3357C74.4233 14.4693 74.2589 13.4368 74.2589 12.2383V5.69675C74.2589 4.49819 74.4233 3.47292 74.7521 2.62094C75.0959 1.76895 75.6564 1.11913 76.4336 0.67148C77.2108 0.223827 78.2645 0 79.5948 0C80.9399 0 82.0011 0.231047 82.7784 0.693141C83.5705 1.14079 84.131 1.79061 84.4598 2.6426C84.8036 3.48014 84.9755 4.49819 84.9755 5.69675V12.2383C84.9755 13.4368 84.8036 14.4693 84.4598 15.3357C84.131 16.1877 83.5705 16.8448 82.7784 17.3069C82.0011 17.769 80.9399 18 79.5948 18ZM79.5948 15.4224C80.073 15.4224 80.4243 15.3213 80.6485 15.1191C80.8727 14.9025 81.0221 14.6209 81.0969 14.2744C81.1716 13.9134 81.209 13.5307 81.209 13.1264V4.83033C81.209 4.42599 81.1716 4.05054 81.0969 3.70397C81.0221 3.3574 80.8727 3.08303 80.6485 2.88087C80.4243 2.66426 80.073 2.55596 79.5948 2.55596C79.1464 2.55596 78.8101 2.66426 78.5859 2.88087C78.3617 3.08303 78.2122 3.3574 78.1375 3.70397C78.0628 4.05054 78.0254 4.42599 78.0254 4.83033V13.1264C78.0254 13.5307 78.0553 13.9134 78.1151 14.2744C78.1898 14.6209 78.3393 14.9025 78.5635 15.1191C78.7877 15.3213 79.1314 15.4224 79.5948 15.4224Z" fill="black"/>
<path d="M91.26 17.7617V2.88087H88.4575V0.216606H97.7393V2.88087H94.9817V17.7617H91.26Z" fill="black"/>
<path d="M106.337 18C105.216 18 104.282 17.8051 103.534 17.4152C102.787 17.0108 102.219 16.4116 101.83 15.6173C101.457 14.8087 101.24 13.7834 101.18 12.5415L104.364 12.0217C104.394 12.7437 104.468 13.3502 104.588 13.8412C104.722 14.3177 104.917 14.6787 105.171 14.9242C105.44 15.1552 105.769 15.2708 106.157 15.2708C106.636 15.2708 106.957 15.1264 107.121 14.8375C107.301 14.5487 107.39 14.2166 107.39 13.8412C107.39 13.1047 107.204 12.491 106.83 12C106.471 11.4946 105.993 10.9892 105.395 10.4838L103.512 8.90253C102.839 8.35379 102.286 7.73285 101.853 7.03971C101.434 6.34657 101.225 5.49458 101.225 4.48375C101.225 3.03971 101.658 1.93502 102.525 1.16968C103.407 0.389892 104.61 0 106.135 0C107.047 0 107.794 0.144405 108.377 0.433214C108.96 0.722022 109.408 1.11191 109.722 1.60289C110.051 2.07942 110.275 2.6065 110.395 3.18412C110.529 3.74729 110.611 4.31047 110.641 4.87365L107.48 5.32852C107.45 4.79422 107.398 4.32491 107.323 3.92058C107.263 3.51625 107.129 3.19856 106.92 2.96751C106.725 2.73646 106.426 2.62094 106.023 2.62094C105.589 2.62094 105.268 2.77978 105.059 3.09747C104.85 3.40072 104.745 3.74007 104.745 4.11552C104.745 4.73646 104.887 5.2491 105.171 5.65343C105.47 6.04332 105.873 6.45487 106.382 6.88809L108.22 8.44765C108.982 9.08303 109.632 9.81227 110.17 10.6354C110.723 11.444 111 12.4477 111 13.6462C111 14.4693 110.806 15.213 110.417 15.8773C110.028 16.5415 109.483 17.0614 108.78 17.4368C108.093 17.8123 107.278 18 106.337 18Z" fill="black"/>
</svg>
