<svg width="18" height="13" viewBox="0 0 18 13" fill="none" xmlns="http://www.w3.org/2000/svg">
<mask id="mask0_2_4549" style="mask-type:alpha" maskUnits="userSpaceOnUse" x="0" y="0" width="18" height="13">
<path d="M9 0.999973C4.27053 2.60621 1.33272 1.63245 0.359242 1.18676C0.199385 1.11357 0 1.23119 0 1.40701V6.55556C0 6.55556 3.11111 8.55556 9 6.55556C14.8889 4.55556 18 6.55556 18 6.55556V1.24262C18 1.09139 17.9237 0.951696 17.7885 0.883917C16.9976 0.487361 14.0001 -0.698159 9 0.999973Z" fill="#1056B3"/>
<path d="M9 6.55556C3.11111 8.55556 0 6.55556 0 6.55556L1.47704e-06 11.8685C1.47704e-06 12.0197 0.0762895 12.1594 0.211478 12.2272C1.00243 12.6237 3.99995 13.8093 9 12.1111C13.7295 10.5049 16.6673 11.4787 17.6408 11.9244C17.8006 11.9975 18 11.8799 18 11.7041L18 6.55556C18 6.55556 14.8889 4.55556 9 6.55556Z" fill="#F8C925"/>
</mask>
<g mask="url(#mask0_2_4549)">
<g filter="url(#filter0_ii_2_4549)">
<path d="M9 0.999973C4.27053 2.60621 1.33272 1.63245 0.359242 1.18676C0.199385 1.11357 0 1.23119 0 1.40701V6.55556C0 6.55556 3.11111 8.55556 9 6.55556C14.8889 4.55556 18 6.55556 18 6.55556V1.24262C18 1.09139 17.9237 0.951696 17.7885 0.883917C16.9976 0.487361 14.0001 -0.698159 9 0.999973Z" fill="#285488"/>
<path d="M9 6.55564C3.11111 8.55564 0 6.55564 0 6.55564V11.8686C0 12.0198 0.076288 12.1595 0.211477 12.2273C1.00242 12.6238 3.99994 13.8094 9 12.1112C13.7295 10.505 16.6673 11.4787 17.6408 11.9244C17.8006 11.9976 18 11.88 18 11.7042V6.55564C18 6.55564 14.8889 4.55564 9 6.55564Z" fill="#C38B35"/>
</g>
<g style="mix-blend-mode:overlay" filter="url(#filter1_f_2_4549)">
<circle cx="1.11107" cy="2.11119" r="10.4444" fill="white"/>
</g>
</g>
<defs>
<filter id="filter0_ii_2_4549" x="-0.444444" y="-0.33336" width="18.8889" height="13.7778" filterUnits="userSpaceOnUse" color-interpolation-filters="sRGB">
<feFlood flood-opacity="0" result="BackgroundImageFix"/>
<feBlend mode="normal" in="SourceGraphic" in2="BackgroundImageFix" result="shape"/>
<feColorMatrix in="SourceAlpha" type="matrix" values="0 0 0 0 0 0 0 0 0 0 0 0 0 0 0 0 0 0 127 0" result="hardAlpha"/>
<feOffset dx="-0.444444" dy="-0.444444"/>
<feGaussianBlur stdDeviation="0.444444"/>
<feComposite in2="hardAlpha" operator="arithmetic" k2="-1" k3="1"/>
<feColorMatrix type="matrix" values="0 0 0 0 0 0 0 0 0 0 0 0 0 0 0 0 0 0 0.5 0"/>
<feBlend mode="normal" in2="shape" result="effect1_innerShadow_2_4549"/>
<feColorMatrix in="SourceAlpha" type="matrix" values="0 0 0 0 0 0 0 0 0 0 0 0 0 0 0 0 0 0 127 0" result="hardAlpha"/>
<feOffset dx="0.444444" dy="0.444444"/>
<feGaussianBlur stdDeviation="0.444444"/>
<feComposite in2="hardAlpha" operator="arithmetic" k2="-1" k3="1"/>
<feColorMatrix type="matrix" values="0 0 0 0 1 0 0 0 0 1 0 0 0 0 1 0 0 0 0.2 0"/>
<feBlend mode="normal" in2="effect1_innerShadow_2_4549" result="effect2_innerShadow_2_4549"/>
</filter>
<filter id="filter1_f_2_4549" x="-18.2223" y="-17.2221" width="38.6667" height="38.6667" filterUnits="userSpaceOnUse" color-interpolation-filters="sRGB">
<feFlood flood-opacity="0" result="BackgroundImageFix"/>
<feBlend mode="normal" in="SourceGraphic" in2="BackgroundImageFix" result="shape"/>
<feGaussianBlur stdDeviation="4.44444" result="effect1_foregroundBlur_2_4549"/>
</filter>
</defs>
</svg>
